<?xml version="1.0" standalone="no"?><!DOCTYPE svg PUBLIC "-//W3C//DTD SVG 1.1//EN" "http://www.w3.org/Graphics/SVG/1.1/DTD/svg11.dtd"><svg t="1595484661308" class="icon" viewBox="0 0 1024 1024" version="1.1" xmlns="http://www.w3.org/2000/svg" p-id="2071" xmlns:xlink="http://www.w3.org/1999/xlink" width="200" height="200"><defs><style type="text/css"></style></defs><path d="M260.736 236.224h507.088a32 32 0 0 1 32 32V592a32 32 0 0 1-32 32H260.736a32 32 0 0 1-32-32V268.224a32 32 0 0 1 32-32z" fill="#95EAFF" p-id="2072"></path><path d="M806.576 196.576H217.424a47.872 47.872 0 0 0-47.936 47.888v379.648A47.888 47.888 0 0 0 217.424 672h589.152a47.872 47.872 0 0 0 47.936-47.888V244.464a47.888 47.888 0 0 0-47.936-47.888z m15.936 427.536c0 8.8-7.104 15.888-15.936 15.888H217.424a15.904 15.904 0 0 1-15.936-15.888V244.464c0-8.8 7.104-15.888 15.936-15.888h589.152c8.816 0 15.936 7.104 15.936 15.888v379.648z" fill="#49A3FE" p-id="2073"></path><path d="M437.344 301.664h-149.408A47.968 47.968 0 0 0 240 349.616v80.08a47.952 47.952 0 0 0 47.936 47.952h149.408a47.968 47.968 0 0 0 47.936-47.952v-80.08a47.968 47.968 0 0 0-47.936-47.952z m15.92 128.032c0 8.8-7.152 15.952-15.936 15.952h-149.408a15.968 15.968 0 0 1-15.936-15.952v-80.08c0-8.8 7.152-15.952 15.936-15.952h149.408c8.784 0 15.936 7.152 15.936 15.952v80.08z" fill="#49A3FE" p-id="2074"></path><path d="M768 528H256a16 16 0 0 0 0 32h512a16 16 0 0 0 0-32zM544 368h208a16 16 0 0 0 0-32H544a16 16 0 0 0 0 32zM544 432h128a16 16 0 0 0 0-32h-128a16 16 0 0 0 0 32z" fill="#0F13AE" p-id="2075"></path><path d="M936.032 710.864h-13.04c0.032-0.448 0.256-0.816 0.256-1.264V178.416A50.448 50.448 0 0 0 872.784 128H151.216a50.448 50.448 0 0 0-50.48 50.416v531.168c0 0.448 0.224 0.832 0.256 1.264h-13.024c-29.856 0-51.664 22.304-45.392 49.968l17.296 76.272C65.376 861.424 90.448 880 116.592 880h790.832c26.16 0 51.2-18.544 56.72-42.896l17.296-76.272c6.256-27.632-15.584-49.968-45.408-49.968z m-803.296-1.28V178.416c0-10.16 8.272-18.416 18.48-18.416h721.568c10.192 0 18.48 8.272 18.48 18.416v531.168c0 0.448 0.224 0.832 0.256 1.264H132.48c0.048-0.432 0.256-0.816 0.256-1.264z m523.344 35.824c-0.512 6.256-1.952 11.952-3.76 15.728H378.16c-1.824-3.792-3.264-9.488-3.76-15.728-0.08-0.912-0.512-1.68-0.736-2.544h283.168c-0.24 0.864-0.672 1.616-0.752 2.544z m276.848 84.624c-2.112 9.28-13.84 17.968-25.52 17.968H116.592c-11.648 0-23.408-8.72-25.52-17.968L73.776 753.76c-1.36-5.984 3.456-10.896 14.192-10.896h255.152a15.76 15.76 0 0 0-0.608 5.152c1.984 24.416 12.032 45.136 30.72 45.136H657.28c18.688 0 28.72-20.688 30.72-45.136a15.808 15.808 0 0 0-0.608-5.152h248.672c10.688 0 15.536 4.944 14.192 10.896l-17.328 76.272z" fill="#0F13AE" p-id="2076"></path></svg>