<?xml version="1.0" standalone="no"?><!DOCTYPE svg PUBLIC "-//W3C//DTD SVG 1.1//EN" "http://www.w3.org/Graphics/SVG/1.1/DTD/svg11.dtd"><svg t="1595484539182" class="icon" viewBox="0 0 1024 1024" version="1.1" xmlns="http://www.w3.org/2000/svg" p-id="1520" xmlns:xlink="http://www.w3.org/1999/xlink" width="200" height="200"><defs><style type="text/css"></style></defs><path d="M327.296 640m-96 0a96 96 0 1 0 192 0 96 96 0 1 0-192 0Z" fill="#95EAFF" p-id="1521"></path><path d="M657.872 241.264c-164.768-13.024-301.872 77.264-338.48 170.704l568.464-7.664c-15.584-43.296-65.216-150.016-229.984-163.04z" fill="#95EAFF" p-id="1522"></path><path d="M743.296 640m-96 0a96 96 0 1 0 192 0 96 96 0 1 0-192 0Z" fill="#95EAFF" p-id="1523"></path><path d="M438.928 355.008l-48.256 34.672a16 16 0 1 0 18.672 26l48.256-34.672a16 16 0 1 0-18.672-26zM304 528a112 112 0 1 0 0 224 112 112 0 0 0 0-224z m0 192a80 80 0 1 1 0.016-160.016A80 80 0 0 1 304 720zM720 528a112 112 0 1 0 0 224 112 112 0 0 0 0-224z m0 192a80 80 0 1 1 0.016-160.016A80 80 0 0 1 720 720z" fill="#49A3FE" p-id="1524"></path><path d="M136.016 653.568A15.568 15.568 0 0 0 144 656a16 16 0 0 0 16-16c0-79.536 64.464-144 144-144s144 64.464 144 144a16 16 0 0 0 22.096 14.768h83.808A16 16 0 0 0 576 640a143.552 143.552 0 0 1 49.824-108.928 16 16 0 0 0-20.944-24.208 175.568 175.568 0 0 0-59.952 115.904h-65.808C470.464 533.664 395.392 464 304 464S137.536 533.664 128.864 622.768H56.016v-23.344l7.888-0.224a16 16 0 0 0 15.52-16.784 884.24 884.24 0 0 1-0.976-32.064c-0.144-12.576 0.128-22.128 0.784-26.016 6.544-38.944 33.472-69.728 68.672-86.32 8.4-3.952 20.832-7.184 36.032-9.536a384.88 384.88 0 0 1 38.448-3.792 472.416 472.416 0 0 1 17.392-0.544 16 16 0 0 0 0-32 479.728 479.728 0 0 0-19.04 0.592c-14.16 0.736-28.352 2.048-41.696 4.112-17.952 2.784-33.072 6.704-44.768 12.208-44.048 20.752-78.144 59.76-86.592 109.952-1.088 6.464-1.392 17.136-1.216 31.712 0.064 5.392 0.224 11.168 0.416 16.96l-7.296 0.208a16 16 0 0 0-15.536 16v50.032a15.68 15.68 0 0 0 1.504 6.592 15.84 15.84 0 0 0 15.648 14.272h88.864a16.48 16.48 0 0 0 5.952-1.216z" fill="#0F13AE" p-id="1525"></path><path d="M965.632 570.912h-9.984v-143.376a16 16 0 0 0-11.616-15.392l-70.576-20.112a16.192 16.192 0 0 0-4.384-0.608h-1.104c-34.832-89.888-105.936-155.44-240.848-166.112-159.472-12.608-311.552 70.848-354.624 180.816l2.496 0.976c0 0.112-0.064 0.208-0.064 0.32a16 16 0 0 0 16 16h575.92l56.8 16.192v146.56a16 16 0 0 0 16 16c0.16 0 0.288-0.08 0.448-0.096 1.344 0.368 2.64 0.832 4.096 0.832h5.424v19.856h-54.496C886.464 533.664 811.392 464 720 464a16 16 0 0 0 0 32 144 144 0 0 1 144 144 16 16 0 0 0 22.096 14.768h79.536a16 16 0 0 0 16-16v-51.856a16 16 0 0 0-16-16z m-132.208-179.488H768V368a16 16 0 0 0-32 0v23.424h-128v-134.912c5.536 0.192 11.056 0.256 16.608 0.704 115.072 9.088 176.576 60.848 208.816 134.208zM576 256.688v134.736h-32V368a16 16 0 0 0-32 0v23.424H315.744c44.288-72.864 146.48-129.008 260.256-134.736z" fill="#0F13AE" p-id="1526"></path><path d="M304 640m-48 0a48 48 0 1 0 96 0 48 48 0 1 0-96 0Z" fill="#0F13AE" p-id="1527"></path><path d="M720 640m-48 0a48 48 0 1 0 96 0 48 48 0 1 0-96 0Z" fill="#0F13AE" p-id="1528"></path><path d="M926.72 798.768H143.856a16 16 0 0 0 0 32H926.72a16 16 0 0 0 0-32zM830.72 862.768H623.472a16 16 0 0 0 0 32H830.72a16 16 0 0 0 0-32zM414.72 862.768H207.472a16 16 0 0 0 0 32H414.72a16 16 0 0 0 0-32z" fill="#0F13AE" p-id="1529"></path></svg>