<?xml version="1.0" standalone="no"?><!DOCTYPE svg PUBLIC "-//W3C//DTD SVG 1.1//EN" "http://www.w3.org/Graphics/SVG/1.1/DTD/svg11.dtd"><svg t="1595484641003" class="icon" viewBox="0 0 1024 1024" version="1.1" xmlns="http://www.w3.org/2000/svg" p-id="1936" xmlns:xlink="http://www.w3.org/1999/xlink" width="200" height="200"><defs><style type="text/css"></style></defs><path d="M244.81792 319.00672s102.08256-3.98336 102.08256 39.87456S406.5792 468.13184 406.5792 468.13184s32.06656 64.44544-22.04672 49.90464c-54.11328-14.54592-64.15872 58.83392-79.21664 58.83392-15.05792 0-57.42592-29.63456-78.52544-51.50208-21.10464-21.888-49.39264-1.76128-49.39264-1.76128l-15.44192-12.30336s-6.57408-70.58944 4.43392-106.59328 53.15072-81.58208 53.15072-81.58208m285.16352-163.32288s-36.096 7.12192-18.048 38.88128 104.46336 26.28608 118.89664 51.51744c14.43328 25.23136 94.65344 79.42656 94.65344 109.952s13.696-82.92864 27.45856-96.44544c13.77792-13.52192 56.33536 0 56.33536 0l-3.11808-27.776s-48.32256-46.14144-111.82592-68.49536-154.14272-21.84192-154.14272-21.84192M285.42464 795.50464l104.77056-10.43456s54.70208 73.20064 105.95328 36.59264c51.23072-36.59264 111.85664-44.48256 111.85664-9.984 0 34.49344-78.23872 74.25536-78.23872 74.25536l-23.31136 24.20736s-43.02336-1.98144-95.104-13.08672c-52.08064-11.10528-131.34336-84.79744-131.34336-84.79744" fill="#95EAFF" p-id="1937"></path><path d="M672 608c0 26.51136 21.48864 48 48 48S768 634.51136 768 608s-21.48864-48-48-48-48 21.48864-48 48z" fill="#0F13AE" p-id="1938"></path><path d="M512 112c-220.91264 0-400 179.08736-400 400S291.08736 912 512 912a399.67744 399.67744 0 0 0 339.10272-187.74528 16.00512 16.00512 0 1 0-27.10016-16.99328 367.57504 367.57504 0 0 1-280.81664 171.264l1.82272-1.024a357.43744 357.43744 0 0 0 30.57664-19.82464c21.40672-15.60064 36.93056-31.15008 44.34944-47.27808a47.58016 47.58016 0 0 0 4.68992-19.98336c0-29.45536-24.52992-42.84928-57.50272-39.424-27.18208 2.816-60.14464 16.49664-89.20064 37.248-17.95072 12.81536-37.74464 10.06592-60.01664-5.15072a149.1456 149.1456 0 0 1-23.86944-20.72064 147.62496 147.62496 0 0 1-8.50944-9.80992l-0.384-0.512a16.0768 16.0768 0 0 0-14.464-6.43072l-1.28 0.128-3.61472 0.35328-12.88192 1.28-39.08608 3.88608-56.84736 5.66272a15.6672 15.6672 0 0 0-12.01664 8.064 366.592 366.592 0 0 1-100.29056-232.12544 15.7184 15.7184 0 0 0 14.976-1.59744 36.75136 36.75136 0 0 1 5.74464-3.08736c7.13728-3.18464 14.08-4.20864 19.72736-2.35008 2.87744 0.94208 5.61664 2.67264 8.28928 5.45792 28.00128 29.02528 76.81536 61.79328 98.27328 61.79328 6.17472 0 11.37664-2.51392 15.79008-6.54336 4.17792-3.82464 7.34208-8.51456 11.91936-16.57856 1.024-1.80736 4.59264-8.23808 4.992-8.97536a257.5872 257.5872 0 0 1 5.26336-9.02656c13.52192-21.85728 25.84064-29.66528 45.37856-24.41728 20.62336 5.55008 36.70528 3.34336 46.72-8.25344 8.16128-9.45664 9.63072-21.85728 7.168-36.27008a115.28192 115.28192 0 0 0-5.08928-18.88256 136.27392 136.27392 0 0 0-5.94944-14.30528 15.85664 15.85664 0 0 0-2.51392-3.66592 420.62336 420.62336 0 0 1-31.56992-40.41728c-8.87808-12.98944-16.20992-25.53344-21.45792-37.15072-5.72928-12.672-8.704-23.68-8.704-32.33792 0-31.93344-27.42272-48.54272-69.61664-55.95136a300.07296 300.07296 0 0 0-54.43072-4.14208 367.90784 367.90784 0 0 1 199.168-122.59328c-9.99936 13.02528-11.23328 30.73536 0.30208 51.04128 12.20608 21.48864 34.47808 30.62272 81.45408 41.24672l11.33056 2.52928c33.34144 7.45472 47.616 12.76928 50.91328 18.52928 7.58272 13.26592 6.656 12.34944 58.89536 60.544a929.04448 929.04448 0 0 1 15.50336 14.57664c24.94464 24.09472 37.85728 41.44128 37.85728 49.80736 0 3.63008 0.128 6.12864 0.52736 8.33536 0.27136 1.39264 0.27136 1.39264 1.024 3.584 1.18272 3.05664 1.18272 3.05664 7.05536 8.192 11.10528 2.83136 11.10528 2.83136 18.048-1.28 3.28192-3.21536 3.28192-3.21536 4.33664-5.07392 1.83808-3.28192 2.75456-6.83008 4.59264-15.72864 0.73728-3.53792 7.53664-38.88128 9.99936-50.67264 6.12864-29.23008 12.31872-50.048 14.81728-52.49536 1.50528-1.46944 4.46464-2.25792 9.31328-1.87392 4.48 0.35328 9.69728 1.67936 15.07328 3.69664a72.7552 72.7552 0 0 1 8.704 3.85536 16 16 0 0 0 21.72416-6.32832l0.00512-0.00512c0.35328-0.64 0.36864-1.32608 0.62464-2.00192A366.57664 366.57664 0 0 1 880.01024 512a16 16 0 1 0 32 0c-0.01024-220.91264-179.0976-400-400.01024-400zM316.95872 783.11936l39.08608-3.88608 9.35936-0.92672c1.71008 1.96608 3.328 3.88608 5.30944 6.016a180.51072 180.51072 0 0 0 29.10208 25.20064c32.22528 22.016 65.96608 26.70592 96.67072 4.76672 24.80128-17.71008 52.62336-29.25056 73.90208-31.45728 16.54272-1.71008 22.21056 1.37728 22.21056 7.59808 0 1.792-0.54272 3.98336-1.74592 6.60992-4.56192 9.90208-16.79872 22.15936-34.12992 34.80064a326.54848 326.54848 0 0 1-27.80672 18.03264 269.7216 269.7216 0 0 1-12.48256 6.89664 15.99488 15.99488 0 0 0-7.00416 21.51936c0.35328 0.67072 0.94208 1.12128 1.36192 1.73056a366.44864 366.44864 0 0 1-242.14528-92.04736c8.10496-0.85504 15.86688-1.62304 48.31232-4.85376zM225.45408 308.20864l1.61792-0.04608c15.13472-0.31744 33.77664 0.57344 51.37408 3.66592 28.30336 4.97664 43.15136 13.96736 43.15136 24.43264 0 13.87008 4.11136 29.056 11.55072 45.50144 6.11328 13.50656 14.35136 27.61728 24.20736 42.03008a449.16736 449.16736 0 0 0 31.27808 40.448l1.34656 1.50528c1.024 2.22208 2.31936 5.21728 3.69664 9.088 1.71008 4.78208 2.99008 9.39008 3.69664 13.52192 1.00864 5.90336 0.59392 9.472 0.15872 9.96864-0.384 0.45056-4.15744 0.97792-14.19264-1.73056-36.096-9.71264-60.78464 5.95456-80.91136 38.48192a887.36256 887.36256 0 0 1-14.62272 24.96c-5.79072-2.16064-16.28672-7.74656-28.09344-15.66208-16.06656-10.78272-32.64-24.30464-43.27936-35.34336a52.08576 52.08576 0 0 0-21.34528-13.62944c-14.44864-4.75136-29.02528-2.59072-42.752 3.53792-2.78528 1.23392-5.48352 2.65728-8.07936 4.25472a365.9776 365.9776 0 0 1 66.95936-203.03872 15.73888 15.73888 0 0 0 14.23872 8.05376z m531.712-55.24992c-13.26592-1.024-25.18528 2.07872-34.19136 10.92608-9.40544 9.23136-15.63136 30.12608-23.72608 68.76672-0.72192 3.47136-1.80736 8.89344-2.99008 14.87872-7.15264-8.65792-16-17.98656-26.89536-28.49792a929.85856 929.85856 0 0 0-16.04608-15.08864c-45.96736-42.38336-47.84128-44.20608-52.81792-52.89472-10.03008-17.55136-27.02336-23.88992-71.71072-33.87392l-11.24864-2.51392c-37.26336-8.43264-54.912-15.66208-60.68736-25.84064-6.54336-11.52-5.18144-15.53408 2.06336-19.80928a32.3072 32.3072 0 0 1 8.94464-3.584 16 16 0 0 0 12.59008-18.80064c-0.08192-0.43008-0.36864-0.75264-0.48128-1.16736a372.09088 372.09088 0 0 1 32.03072-1.47456c104.49408 0 198.75328 43.63264 265.74336 113.58208a85.3248 85.3248 0 0 0-20.57728-4.608z" fill="#0F13AE" p-id="1939"></path><path d="M946.38592 450.07872a16.00512 16.00512 0 0 0-20.04992 24.94464c12.14464 9.75872 17.664 18.816 17.664 26.79808 0 20.54144-35.92192 45.74208-102.35392 66.03264a16 16 0 1 0 9.35936 30.60736c79.104-24.17664 124.99456-56.35072 124.99456-96.64 0-19.05152-10.57792-36.44416-29.61408-51.74272z m-355.8912 188.06272a16.00512 16.00512 0 0 0-1.536-31.96928c-25.63584 1.22368-51.29728 1.83296-76.95872 1.82272-237.45536 0-432-53.05856-432-106.17344 0-7.56736 4.96128-16.11264 15.93344-25.37472a16.00512 16.00512 0 0 0-20.64384-24.448c-17.56672 14.81728-27.29472 31.56992-27.29472 49.82272C48 583.64928 254.60736 640 512 640c26.51136 0 52.75136-0.62464 78.49472-1.85856z" fill="#49A3FE" p-id="1940"></path></svg>