<?xml version="1.0" standalone="no"?><!DOCTYPE svg PUBLIC "-//W3C//DTD SVG 1.1//EN" "http://www.w3.org/Graphics/SVG/1.1/DTD/svg11.dtd"><svg t="1595484561970" class="icon" viewBox="0 0 1024 1024" version="1.1" xmlns="http://www.w3.org/2000/svg" p-id="1796" xmlns:xlink="http://www.w3.org/1999/xlink" width="200" height="200"><defs><style type="text/css"></style></defs><path d="M581.904 586.288h282.144a15.904 15.904 0 0 0 15.952-15.84V408.864a64.032 64.032 0 0 0-64.032-64.08H243.44a64.112 64.112 0 0 0-64.032 64.08v161.568c0 8.624 7.136 15.84 15.952 15.84H476.8c23.712-17.472 29.552-40.256 52.896-40.256 22.896 0.016 29.856 23.312 52.208 40.272z" fill="#06CFFF" p-id="1797"></path><path d="M512 887.92c95.12 0 185.856-73.328 252.64-189.856a16 16 0 1 0-27.76-15.92C675.2 789.776 593.344 855.92 512 855.92c-81.216 0-162.944-65.936-224.608-173.28a16 16 0 1 0-27.744 15.936C326.416 814.816 417.024 887.92 512 887.92z" fill="#4548B8" p-id="1798"></path><path d="M448.688 95.52a16 16 0 0 0-32 0v192.448a16 16 0 0 0 32 0V95.52zM559.504 287.984a16 16 0 0 0 32 0V87.76a16 16 0 0 0-32 0v200.224z" fill="#49A3FE" p-id="1799"></path><path d="M586.128 718.144a16 16 0 1 0-22.112-23.136A74.912 74.912 0 0 1 512 715.968a75.136 75.136 0 0 1-55.376-24.384 16 16 0 1 0-23.504 21.712A107.12 107.12 0 0 0 512 747.968a106.88 106.88 0 0 0 74.128-29.824zM942.992 381.664H928a16 16 0 0 0 0 32h14.992c3.472 0 6.352 2.88 6.352 6.464v82.352a6.368 6.368 0 0 1-6.352 6.464H928a16 16 0 0 0 0 32h14.992a38.368 38.368 0 0 0 38.352-38.464v-82.352a38.4 38.4 0 0 0-38.352-38.464zM86.352 413.664h14.992a16 16 0 0 0 0-32h-14.992A38.4 38.4 0 0 0 48 420.112v82.352a38.368 38.368 0 0 0 38.352 38.464h14.992a16 16 0 0 0 0-32h-14.992A6.368 6.368 0 0 1 80 502.464v-82.352c0-3.568 2.88-6.448 6.352-6.448z" fill="#0F13AE" p-id="1800"></path><path d="M758.72 676.24a16 16 0 0 0-21.84 5.92C675.2 789.776 593.344 855.92 512 855.92c-81.216 0-162.944-65.936-224.608-173.28a16 16 0 1 0-27.744 15.936c36.368 63.328 79.856 113.712 127.248 146.592a15.856 15.856 0 0 0 1.104 5.216c1.152 2.656 3.056 7.952 4.992 15.184 5.616 20.896 7.184 42.48 2.432 62.064a121.344 121.344 0 0 1-0.96 3.648 16 16 0 0 0 30.752 8.88c0.48-1.648 0.912-3.296 1.312-4.96 5.344-22.016 4.4-44.848-0.304-67.152 27.808 12.944 56.592 19.92 85.776 19.92 31.968 0 63.424-8.464 93.664-23.888-5.472 23.552-6.832 47.808-1.168 71.136 0.4 1.664 0.848 3.328 1.312 4.96a15.968 15.968 0 0 0 19.808 10.928 15.968 15.968 0 0 0 10.928-19.808 67.744 67.744 0 0 1-0.96-3.648c-4.752-19.568-3.184-41.168 2.432-62.064 1.936-7.232 3.84-12.528 4.992-15.184a15.648 15.648 0 0 0 0.624-9.904c44.96-32.992 86.224-81.776 120.976-142.4a15.968 15.968 0 0 0-5.888-21.856zM512 64c-113.296 0-216.944 57.568-278.464 151.344-3.584 5.456-7.008 11.024-10.272 16.672a16 16 0 1 0 27.728 15.984c2.96-5.12 6.048-10.16 9.296-15.104C315.968 148.016 409.632 96 512 96c107.232 0 204.736 57.12 259.056 148.656a16 16 0 1 0 27.52-16.32C738.576 127.2 630.688 64 512 64zM764.384 352.56H241.584a16 16 0 0 0 0 32h522.784a16 16 0 0 0 0.016-32z" fill="#0F13AE" p-id="1801"></path><path d="M169.472 533.68a18.144 18.032 90 1 0 36.064 0 18.144 18.032 90 1 0-36.064 0Z" fill="#0F13AE" p-id="1802"></path><path d="M169.472 461.088a18.144 18.032 90 1 0 36.064 0 18.144 18.032 90 1 0-36.064 0Z" fill="#0F13AE" p-id="1803"></path><path d="M480 208a16 16 0 0 0 0 32h48a16 16 0 0 0 0-32h-48zM480 144a16 16 0 0 0 0 32h48a16 16 0 0 0 0-32h-48z" fill="#0F13AE" p-id="1804"></path><path d="M892.752 640.416c17.616 0 31.84-14.352 31.84-31.984V361.92c0-44.256-35.76-80.144-79.904-80.144H179.312c-44.08 0-79.904 35.92-79.904 80.144v246.528c0 17.648 14.224 31.984 31.84 31.984h320.864c3.888 0 7.648-1.424 10.576-3.984 5.36-4.72 10.24-9.856 15.056-15.712 4.496-5.44 16.432-21.728 17.312-22.848 7.136-9.104 11.264-11.904 16.928-11.904 5.536 0 9.952 3.12 17.552 12.96 1.552 2 11.408 15.568 14.784 19.888 5.264 6.688 10.368 12.336 16.016 17.456a15.968 15.968 0 0 0 10.752 4.144h321.664z m-310.896-27.856a106.048 106.048 0 0 1-12.352-13.536c-2.912-3.696-12.656-17.12-14.624-19.664-13.056-16.912-25.088-25.392-42.88-25.392-17.568 0-29.504 8.08-42.112 24.144-1.424 1.808-13.04 17.648-16.816 22.224a103.072 103.072 0 0 1-11.536 12.064l10.576-3.984H131.248c0.096 0 0.16-246.512 0.16-246.512a48.08 48.08 0 0 1 47.904-48.144h665.392a48.016 48.016 0 0 1 47.904 48.144v246.528l-321.488-0.016 10.736 4.144z" fill="#49A3FE" p-id="1805"></path></svg>